<svg width="495" height="346" viewBox="0 0 495 346" fill="none" xmlns="http://www.w3.org/2000/svg">
<path d="M185.533 294.274C188.843 291.884 189.762 288.022 194.175 288.022H194.911C195.83 287.103 197.117 287.287 198.22 286.368C198.772 286 199.324 285.08 200.059 285.08C200.243 285.08 200.427 285.08 200.795 285.264C202.817 284.896 204.656 284.161 206.311 282.874C206.495 282.69 206.679 282.69 206.863 282.69C207.966 282.69 208.702 283.977 209.621 284.713C209.805 285.632 210.908 286.184 210.724 287.103C210.908 287.287 211.276 287.287 211.46 287.287C212.011 287.287 212.563 286.919 213.298 286.919C213.482 286.368 212.747 286.551 212.563 286.184C212.011 286.184 211.644 286 211.276 285.632C211.644 285.816 212.195 285.816 212.747 285.816H213.115H213.482H213.85C213.85 286.735 215.137 287.103 214.586 288.022C214.77 288.574 215.505 288.39 215.689 288.942C215.689 290.045 215.505 291.516 216.792 292.068C217.344 291.884 217.16 291.148 217.344 290.597C217.712 290.597 218.263 290.781 218.815 290.781C219.183 290.781 219.55 290.781 219.734 290.413C220.654 290.781 221.757 290.413 222.492 291.148C223.228 291.148 223.963 290.964 224.147 291.7C225.067 293.539 223.228 295.194 224.515 296.849L224.331 297.216C223.044 298.136 222.125 299.974 220.47 299.974C220.286 299.974 220.102 299.974 219.918 299.791L218.999 300.526C216.792 300.71 214.586 301.262 212.379 301.262C210.724 301.262 209.253 300.894 207.966 299.974C207.414 299.423 207.598 298.32 206.863 297.768C205.024 297.032 203.185 296.481 201.163 295.929C199.875 296.665 199.875 297.584 198.404 297.584C197.669 298.687 197.117 300.158 195.462 300.158C195.095 300.71 195.278 301.078 192.888 300.71C192.52 300.71 189.762 298.503 189.027 297.768C189.21 297.584 189.578 297.4 189.762 297.216C190.314 297.216 190.498 296.113 191.049 296.113C191.417 296.113 191.601 296.113 191.785 295.929C191.601 294.826 192.52 293.723 191.969 292.619C192.336 291.884 192.888 291.884 193.44 291.516C194.359 290.045 195.83 289.31 197.117 288.574C195.462 288.758 193.991 289.126 192.52 289.493C191.233 290.229 190.498 291.516 189.762 292.619C189.21 294.09 187.556 294.642 186.636 295.745C185.533 295.194 185.349 294.458 185.533 294.274V294.274Z" fill="white"/>
<path d="M236.467 297.216C240.145 295.01 241.432 290.597 245.109 288.574C247.684 287.287 250.442 286 253.568 285.264C254.12 283.977 255.407 283.977 256.326 283.609C258.349 280.667 261.659 280.851 263.497 277.909C264.601 275.887 266.623 274.783 268.278 273.496H268.646C269.381 273.496 269.933 274.415 270.117 274.967C271.036 276.806 271.588 278.829 273.427 280.3C274.346 281.219 273.059 282.874 273.978 283.793C273.978 285.264 273.059 286.368 272.875 287.655C273.243 289.31 271.956 291.7 274.162 292.436C274.714 292.436 275.082 292.619 275.449 292.987C274.898 294.642 276.185 295.378 276.737 296.665C277.288 297.216 278.391 297.032 278.759 297.584C278.575 298.32 278.391 299.607 279.495 299.791C281.701 300.526 281.15 303.1 281.517 305.123C281.15 306.226 280.782 307.697 281.15 308.985C281.885 310.639 283.908 311.927 282.988 314.133C282.621 314.869 282.069 315.42 282.069 316.156C280.414 316.891 278.759 318.178 276.737 318.178C276.185 318.178 275.817 318.178 275.265 317.811C274.53 316.707 273.243 316.34 271.956 316.34C271.588 316.34 271.036 316.34 270.669 316.524C270.117 317.259 269.381 317.259 268.462 317.259H268.094C266.991 317.259 265.888 317.259 265.52 318.546C264.417 318.362 263.865 317.075 262.762 317.075C262.394 317.259 262.21 317.443 261.842 317.443C261.291 317.443 260.923 317.075 260.555 316.891C260.187 316.524 259.636 316.34 259.084 316.34C258.9 316.34 258.533 316.524 258.165 316.707C257.613 317.443 257.062 317.627 256.51 317.627C255.958 317.627 255.407 317.443 254.855 317.259C254.671 316.891 254.671 316.34 254.855 315.972C255.591 313.03 259.268 312.478 259.452 309.168C259.636 309.168 259.82 309.352 260.004 309.352C260.739 309.352 261.475 308.617 261.842 308.065C261.107 306.043 262.21 303.1 259.82 301.997C259.636 301.629 259.636 301.446 259.268 301.078C256.694 302.181 257.245 305.307 254.487 305.491C253.568 308.249 250.626 307.146 248.787 308.065C248.419 309.168 248.787 310.639 247.868 311.559C247.684 311.559 247.316 311.559 247.132 311.559C246.397 311.559 245.477 311.743 244.742 311.927C244.006 312.111 243.271 312.294 242.535 312.294C241.984 312.294 241.432 312.111 240.88 311.927C237.938 307.697 232.422 309.168 229.848 304.388C232.238 301.997 235.18 300.158 236.467 297.216V297.216Z" fill="white"/>
<path d="M98.0071 313.398C96.9038 314.133 95.6166 315.788 94.3295 315.788C93.7779 315.788 93.4101 315.604 92.8585 314.869L91.3875 313.398V308.801H92.4907H93.2262C95.065 308.801 97.2715 308.617 98.5587 307.514C100.581 305.675 101.317 301.997 104.443 301.997H104.811C107.201 299.607 108.672 296.113 112.166 295.378C116.211 293.723 117.682 288.942 121.727 286.919C125.221 286.919 128.163 285.448 131.105 283.977C132.392 284.161 133.128 286.368 134.967 286.368C135.15 286.368 135.334 286.368 135.702 286.184C137.725 282.322 142.138 283.058 143.609 279.013C146.735 276.622 150.412 274.967 153.722 273.128C155.193 273.68 156.113 275.335 156.48 276.806C156.664 277.909 155.561 278.093 155.193 279.013C153.171 280.851 156.296 282.322 155.009 284.345C155.009 287.103 158.503 287.839 158.135 290.781C159.055 292.436 157.216 294.091 156.848 295.745C154.274 297.952 155.193 301.813 151.699 303.468C151.332 303.284 150.964 303.284 150.78 303.284C149.677 303.284 148.757 303.836 147.838 304.572C146.919 305.123 145.999 305.675 144.896 305.675C143.425 306.778 141.954 308.985 140.115 308.985C139.564 308.985 139.012 308.801 138.46 308.433C133.679 310.456 134.967 317.443 129.082 317.443C127.611 317.627 126.324 317.627 125.037 317.627C123.566 317.627 121.911 317.443 120.624 316.891L116.027 312.478C115.659 312.662 115.292 312.662 114.924 312.662C114.188 312.662 113.453 312.294 112.533 311.927C111.798 311.559 110.879 311.191 110.143 311.191C109.408 311.191 108.856 311.375 108.12 312.111C108.12 312.111 107.936 312.111 107.569 312.111H107.201H106.649C105.73 312.478 106.098 313.582 105.178 314.133C104.627 314.317 104.075 314.501 103.707 314.501C102.788 314.501 102.052 314.133 101.317 313.949" fill="white"/>
<path d="M363.343 318.73C366.469 316.892 366.469 315.053 369.595 313.398C371.801 312.295 374.192 311.191 376.766 310.64C377.134 309.537 380.26 308.433 381.179 308.066C382.834 305.675 384.857 304.94 386.328 302.365C387.247 300.71 389.086 299.791 390.373 298.688C391.292 298.688 391.66 299.423 391.844 299.791C392.58 301.446 393.131 303.101 394.602 304.388C395.338 305.123 399.383 306.962 400.119 307.698C400.119 308.801 399.383 309.904 399.199 311.008C399.567 312.295 398.28 314.501 400.302 315.053C400.67 315.053 401.038 315.237 401.406 315.605C401.038 316.892 399.567 318.547 399.935 319.65C400.486 320.201 401.406 319.834 401.774 320.385C401.59 321.121 403.98 321.121 404.899 321.305C406.738 321.856 402.877 323.511 403.245 324.982C402.877 325.902 402.693 327.189 402.877 328.292C403.612 329.579 403.428 330.866 402.693 332.705C402.509 333.257 401.957 333.808 401.957 334.544C400.486 335.096 400.67 336.199 399.015 336.199C398.648 336.199 398.096 336.199 397.728 336.015C396.993 335.096 396.073 334.728 394.97 334.728C394.602 334.728 394.235 334.728 393.867 334.728C393.315 335.463 391.109 335.463 390.373 335.463H390.189C389.27 335.463 388.718 332.521 387.615 332.521C387.431 332.705 384.857 333.441 384.857 330.683C384.673 330.499 384.489 330.131 384.305 329.947C384.857 330.131 385.592 329.947 386.144 330.315C386.512 330.499 386.512 330.866 386.879 330.866C387.063 330.866 387.063 330.499 387.247 330.499C387.615 330.131 388.35 329.947 388.35 329.395C388.35 328.844 387.983 328.476 387.983 327.74C387.983 326.453 387.615 326.086 387.983 324.982C388.35 324.247 389.086 324.063 389.086 323.327C389.086 322.96 388.902 322.776 388.902 322.408C388.902 321.856 389.086 321.673 389.27 321.121C389.27 321.121 388.167 322.408 387.431 323.144C386.879 323.695 386.144 323.879 386.144 324.615C386.144 324.798 385.224 326.086 384.305 326.453C383.753 326.637 383.57 327.189 383.018 327.557C382.65 327.557 382.282 327.557 381.731 327.924C379.34 330.131 376.214 329.212 374.927 329.947C374.743 330.866 373.456 329.395 372.721 330.131C372.537 330.131 369.779 330.683 369.595 330.683C368.859 330.683 366.469 329.212 365.917 329.395C365.366 329.579 364.63 329.763 364.079 329.763C363.711 329.763 363.159 329.579 362.791 329.395C360.401 325.718 360.033 328.292 357.827 324.247C359.849 322.776 362.24 321.305 363.343 318.73V318.73Z" fill="white"/>
<path d="M251.361 288.574C249.89 288.574 248.603 289.861 247.316 290.781C247.684 292.803 242.535 293.539 242.903 295.194C243.271 295.378 243.822 294.458 244.742 294.642C245.11 294.642 247.132 295.194 247.5 295.01C248.052 294.09 248.787 293.907 249.523 293.907C249.89 293.907 250.442 293.907 250.994 294.09C251.545 294.09 251.913 294.274 252.281 294.274C252.832 294.274 253.384 294.09 253.936 293.723C254.12 292.435 255.775 292.619 255.775 291.7C254.487 291.332 257.429 288.022 257.246 286.919C257.613 285.448 255.223 287.839 255.223 287.839C254.855 287.839 253.936 289.126 252.649 289.126C252.281 288.758 251.913 288.574 251.361 288.574V288.574Z" fill="#303030"/>
<path d="M387.063 312.111C386.696 311.559 387.431 309.72 386.696 309.352C386.328 308.801 387.063 306.41 386.696 305.859C386.512 305.675 386.328 305.491 386.144 305.491C384.857 306.043 383.202 310.272 381.915 308.985C380.628 309.904 382.283 311.559 380.995 312.662C380.995 313.03 379.524 312.294 378.237 313.03C377.318 313.398 376.399 314.133 375.111 314.501C373.824 314.869 371.434 314.133 370.514 315.972C370.514 316.156 374.927 316.708 376.766 316.156C379.524 316.891 380.26 317.627 380.628 317.811C381.179 318.362 382.283 320.569 382.65 321.121C383.386 322.04 384.673 317.995 384.857 317.443C385.592 315.053 388.351 313.765 387.063 312.111V312.111Z" fill="#303030"/>
<path d="M208.15 287.471C207.966 287.471 207.782 287.655 207.415 287.838L207.047 287.655C206.679 288.206 205.76 288.206 205.024 288.574C205.024 289.126 204.656 289.309 204.289 289.677C204.289 290.045 204.289 290.229 204.472 290.597C205.208 291.516 205.576 292.803 205.576 294.09C205.576 294.274 205.76 294.458 206.127 294.458C206.679 293.723 206.679 292.803 207.047 292.068C205.76 290.597 208.518 290.045 207.966 288.574C207.782 288.022 208.518 288.022 208.15 287.471V287.471Z" fill="#303030"/>
<path d="M146.919 287.471L141.402 291.884C139.012 293.171 136.621 293.906 134.415 295.745C133.128 295.745 132.392 294.826 131.473 294.09C131.105 294.09 130.921 293.906 130.553 293.906C128.531 293.906 126.692 295.194 125.037 296.665C124.669 297.768 123.934 298.687 123.014 299.607C122.463 300.342 121.543 300.526 121.543 301.078C123.566 301.997 123.382 304.204 123.934 305.675H124.485C125.405 305.675 126.508 305.123 127.427 304.755C128.531 303.652 130.002 303.468 131.473 303.468C132.392 303.468 133.495 303.652 134.415 303.652C135.518 303.1 136.621 301.813 138.092 301.813H138.46C139.747 300.71 141.402 300.526 142.505 299.055C141.402 295.377 145.448 293.723 144.896 290.229C145.448 289.493 146.551 288.574 146.919 287.471V287.471Z" fill="#303030"/>
<path d="M495 345.024L481.209 335.278C481.209 335.278 472.935 333.072 467.97 330.313C462.637 331.049 458.04 324.797 454.731 323.142C451.789 321.671 442.779 324.245 440.204 322.958C436.159 320.936 431.562 320.568 430.459 320.016C425.862 317.626 423.471 314.5 422.736 313.948C417.587 312.661 417.587 306.961 414.461 303.651C410.968 302.915 410.232 301.812 407.29 299.973C406.003 298.319 404.9 296.48 403.061 295.193C400.119 293.905 393.867 292.802 392.764 293.354C391.109 294.825 389.086 295.744 387.615 297.399C385.96 300.709 383.386 301.996 381.179 304.57C379.708 304.754 376.399 307.512 375.111 307.88C371.985 308.983 369.043 309.535 366.653 311.19C364.079 309.167 362.424 308.8 362.056 307.88L359.482 306.777C358.379 305.122 356.54 304.203 355.069 303.283C353.046 302.732 353.046 300.709 351.943 299.422C350.656 299.054 349.552 298.135 348.449 297.583C348.081 297.031 347.53 296.296 346.978 295.744C346.426 295.928 346.059 295.928 345.507 296.112C344.955 296.664 344.036 297.031 343.484 297.583C342.933 298.87 341.462 298.87 340.726 299.973C340.175 299.973 339.807 300.525 339.255 300.709C338.336 301.077 337.233 301.444 336.313 302.18C334.842 302.732 334.107 303.467 333.555 304.387C332.819 305.306 332.452 305.49 331.9 306.593C331.348 307.329 328.406 307.88 328.406 307.88C328.406 307.88 327.671 307.696 326.384 307.145L310.019 296.112C307.077 292.251 302.48 290.044 298.618 287.286C293.286 285.815 293.286 279.931 290.16 276.621C286.482 275.702 283.724 273.311 280.598 271.472C279.311 269.634 278.208 267.795 276.185 266.324C274.898 266.691 273.427 266.691 272.14 267.243C270.485 268.898 268.278 269.634 266.807 271.472C265.152 274.782 261.475 275.15 259.084 277.908C257.429 278.092 256.51 279.563 255.039 279.931C249.89 281.586 244.006 284.528 241.432 290.044C239.777 291.331 235.916 294.089 234.812 295.928C234.261 295.744 233.893 294.825 233.893 294.825C233.341 294.641 232.422 293.722 232.054 293.354C231.686 292.067 230.767 290.963 229.848 289.676C229.112 287.286 226.538 287.286 224.699 286.734L223.228 285.263C222.309 283.241 219.918 282.873 218.447 281.586C218.079 281.586 217.896 281.402 217.528 281.402H216.976H216.608C216.057 281.402 215.505 281.402 215.137 281.034C213.85 280.85 213.299 279.379 212.195 278.827L209.621 278.46C207.415 278.46 206.127 280.666 203.737 280.666C203.553 280.666 203.185 280.482 203.001 280.482C201.347 280.482 200.059 281.953 198.772 282.873H198.221C196.566 284.528 193.991 283.424 192.337 285.079C190.314 287.102 187.923 288.941 186.269 291.147L182.591 286.366L180.384 285.079L178.362 278.644C176.707 275.334 172.478 276.069 169.168 275.518C164.387 274.598 162.732 267.611 157.767 267.611C157.4 267.611 157.032 267.611 156.664 267.795C152.067 270.185 147.103 272.024 142.873 275.518C142.138 277.356 140.115 278.092 138.644 279.011C137.541 278.46 136.438 278.092 135.518 278.092C133.679 278.092 132.025 279.011 130.37 279.747C128.715 280.666 127.06 281.586 125.221 281.586C124.853 281.586 124.302 281.586 123.934 281.402C119.521 284.16 121.543 281.953 117.314 285.447C117.314 285.447 116.395 287.47 114.372 289.308C111.614 291.699 107.385 294.273 105.914 297.031C100.03 299.054 100.03 306.041 81.2741 304.019C80.9064 304.203 80.1709 304.387 79.8031 304.387C76.6772 307.512 77.2288 312.293 72.0802 313.764C71.3447 314.316 68.9543 317.442 64.3574 319.832C63.2541 320.384 58.6571 320.752 54.6118 322.774C52.2214 324.061 43.0275 321.487 40.0854 322.958C36.7756 324.613 32.1787 330.865 26.8462 330.129C21.8815 332.704 13.607 335.094 13.607 335.094L0 345.024H81.458H495ZM363.343 318.729C366.469 316.89 366.469 315.051 369.595 313.397C371.802 312.293 374.192 311.19 376.766 310.638C377.134 309.535 380.26 308.432 381.179 308.064C382.834 305.674 384.857 304.938 386.328 302.364C387.247 300.709 389.086 299.79 390.373 298.686C391.293 298.686 391.66 299.422 391.844 299.79C392.58 301.444 393.131 303.099 394.603 304.387C395.338 305.122 399.383 306.961 400.119 307.696C400.119 308.8 399.383 309.903 399.199 311.006C399.567 312.293 398.28 314.5 400.303 315.051C400.67 315.051 401.038 315.235 401.406 315.603C401.038 316.89 399.567 318.545 399.935 319.648C400.487 320.2 401.406 319.832 401.774 320.384C401.59 321.119 403.98 321.119 404.9 321.303C406.738 321.855 402.877 323.51 403.245 324.981C402.877 325.9 402.693 327.187 402.877 328.291C403.613 329.578 403.429 330.865 402.693 332.704C402.509 333.255 401.958 333.807 401.958 334.543C400.487 335.094 400.67 336.197 399.016 336.197C398.648 336.197 398.096 336.197 397.728 336.014C396.993 335.094 396.074 334.726 394.97 334.726C394.603 334.726 394.235 334.726 393.867 334.726C393.315 335.462 391.109 335.462 390.373 335.462H390.189C389.27 335.462 388.718 332.52 387.615 332.52C387.431 332.704 384.857 333.439 384.857 330.681C384.673 330.497 384.489 330.129 384.305 329.946C384.857 330.129 385.592 329.946 386.144 330.313C386.512 330.497 386.512 330.865 386.88 330.865C387.063 330.865 387.064 330.497 387.247 330.497C387.615 330.129 388.351 329.946 388.351 329.394C388.351 328.842 387.983 328.475 387.983 327.739C387.983 326.452 387.615 326.084 387.983 324.981C388.351 324.245 389.086 324.061 389.086 323.326C389.086 322.958 388.902 322.774 388.902 322.407C388.902 321.855 389.086 321.671 389.27 321.119C389.27 321.119 388.167 322.407 387.431 323.142C386.88 323.694 386.144 323.878 386.144 324.613C386.144 324.797 385.225 326.084 384.305 326.452C383.754 326.636 383.57 327.187 383.018 327.555C382.65 327.555 382.283 327.555 381.731 327.923C379.341 330.129 376.215 329.21 374.928 329.946C374.744 330.865 373.457 329.394 372.721 330.129C372.537 330.129 369.779 330.681 369.595 330.681C368.86 330.681 366.469 329.21 365.918 329.394C365.366 329.578 364.63 329.762 364.079 329.762C363.711 329.762 363.159 329.578 362.792 329.394C360.401 325.716 360.033 328.291 357.827 324.245C359.85 322.774 362.24 321.303 363.343 318.729V318.729ZM331.532 309.167C332.819 308.432 333.371 306.777 334.658 306.041C335.578 305.49 336.681 305.122 337.6 304.754C337.784 304.387 338.336 304.203 338.704 304.203C339.439 303.099 340.726 303.283 341.278 302.18C341.646 301.444 342.381 301.077 343.117 300.525C343.484 300.525 343.668 300.893 343.668 301.077C344.036 301.812 344.22 302.548 344.955 303.099C345.323 303.467 344.772 304.019 345.139 304.387C345.139 304.938 344.772 305.306 344.772 305.858C344.955 306.409 344.404 307.329 345.323 307.512C345.507 307.512 345.691 307.512 345.691 307.696C345.507 308.248 346.059 308.616 346.059 308.983C346.243 309.167 346.61 309.167 346.794 309.351C346.794 309.719 346.61 310.087 346.978 310.087C347.714 310.271 347.53 311.374 347.714 311.926C347.53 312.293 347.53 312.845 347.53 313.397C347.714 313.948 348.449 314.5 348.081 315.235C347.897 315.419 347.714 315.787 347.714 315.971C347.162 316.155 346.426 316.706 345.875 316.706C345.691 316.706 345.507 316.706 345.323 316.522C345.139 316.155 344.588 315.971 344.22 315.971C344.036 315.971 343.852 315.971 343.852 315.971C343.668 316.339 343.301 316.339 342.933 316.339C342.565 316.339 342.197 316.339 342.013 316.89C341.646 316.89 341.462 316.339 341.094 316.339C340.91 316.522 340.91 316.522 340.726 316.522C340.542 316.522 340.358 316.339 340.175 316.339C339.991 316.155 339.807 316.155 339.623 316.155C339.439 316.155 339.439 316.155 339.255 316.339C339.071 316.522 338.887 316.706 338.704 316.706C338.52 316.706 338.336 316.706 338.152 316.522V315.787C338.52 314.684 339.807 314.5 339.991 313.397C340.358 313.397 340.542 313.213 340.542 312.845C340.175 312.109 339.991 312.845 338.887 313.029C338.52 313.948 337.416 311.374 336.681 311.742C336.497 312.109 336.681 312.661 336.313 313.029H336.129C335.762 313.029 335.578 313.029 335.21 313.213C335.026 313.213 334.658 313.397 334.474 313.397C334.29 313.397 334.107 313.397 333.923 313.213C332.819 311.742 329.326 312.293 328.406 310.454C329.51 309.719 331.165 310.271 331.532 309.167V309.167ZM236.467 297.215C240.145 295.009 241.432 290.596 245.11 288.573C247.684 287.286 250.442 285.999 253.568 285.263C254.12 283.976 255.407 283.976 256.326 283.608C258.349 280.666 261.659 280.85 263.497 277.908C264.601 275.885 266.623 274.782 268.278 273.495H268.646C269.381 273.495 269.933 274.414 270.117 274.966C271.036 276.805 271.588 278.827 273.427 280.298C274.346 281.218 273.059 282.873 273.978 283.792C273.978 285.263 273.059 286.366 272.875 287.654C273.243 289.308 271.956 291.699 274.162 292.434C274.714 292.434 275.082 292.618 275.449 292.986C274.898 294.641 276.185 295.376 276.737 296.664C277.288 297.215 278.392 297.031 278.759 297.583C278.575 298.319 278.392 299.606 279.495 299.79C281.701 300.525 281.15 303.099 281.517 305.122C281.15 306.225 280.782 307.696 281.15 308.983C281.885 310.638 283.908 311.926 282.988 314.132C282.621 314.868 282.069 315.419 282.069 316.155C280.414 316.89 278.759 318.177 276.737 318.177C276.185 318.177 275.817 318.177 275.266 317.81C274.53 316.706 273.243 316.339 271.956 316.339C271.588 316.339 271.036 316.339 270.669 316.522C270.117 317.258 269.381 317.258 268.462 317.258H268.094C266.991 317.258 265.888 317.258 265.52 318.545C264.417 318.361 263.865 317.074 262.762 317.074C262.394 317.258 262.21 317.442 261.842 317.442C261.291 317.442 260.923 317.074 260.555 316.89C260.188 316.522 259.636 316.339 259.084 316.339C258.9 316.339 258.533 316.522 258.165 316.706C257.613 317.442 257.062 317.626 256.51 317.626C255.958 317.626 255.407 317.442 254.855 317.258C254.671 316.89 254.671 316.339 254.855 315.971C255.591 313.029 259.268 312.477 259.452 309.167C259.636 309.167 259.82 309.351 260.004 309.351C260.739 309.351 261.475 308.616 261.842 308.064C261.107 306.041 262.21 303.099 259.82 301.996C259.636 301.628 259.636 301.444 259.268 301.077C256.694 302.18 257.246 305.306 254.487 305.49C253.568 308.248 250.626 307.145 248.787 308.064C248.419 309.167 248.787 310.638 247.868 311.558C247.684 311.558 247.316 311.558 247.132 311.558C246.397 311.558 245.477 311.742 244.742 311.926C244.006 312.109 243.271 312.293 242.535 312.293C241.984 312.293 241.432 312.109 240.88 311.926C237.938 307.696 232.422 309.167 229.848 304.387C232.238 301.996 235.18 300.157 236.467 297.215V297.215ZM185.533 294.273C188.843 291.883 189.762 288.021 194.175 288.021H194.911C195.83 287.102 197.117 287.286 198.221 286.366C198.772 285.999 199.324 285.079 200.059 285.079C200.243 285.079 200.427 285.079 200.795 285.263C202.818 284.895 204.656 284.16 206.311 282.873C206.495 282.689 206.679 282.689 206.863 282.689C207.966 282.689 208.702 283.976 209.621 284.712C209.805 285.631 210.908 286.183 210.724 287.102C210.908 287.286 211.276 287.286 211.46 287.286C212.012 287.286 212.563 286.918 213.299 286.918C213.483 286.366 212.747 286.55 212.563 286.183C212.012 286.183 211.644 285.999 211.276 285.631C211.644 285.815 212.195 285.815 212.747 285.815H213.115H213.483H213.85C213.85 286.734 215.137 287.102 214.586 288.021C214.77 288.573 215.505 288.389 215.689 288.941C215.689 290.044 215.505 291.515 216.792 292.067C217.344 291.883 217.16 291.147 217.344 290.596C217.712 290.596 218.263 290.78 218.815 290.78C219.183 290.78 219.551 290.78 219.734 290.412C220.654 290.78 221.757 290.412 222.493 291.147C223.228 291.147 223.964 290.963 224.147 291.699C225.067 293.538 223.228 295.193 224.515 296.848L224.331 297.215C223.044 298.135 222.125 299.973 220.47 299.973C220.286 299.973 220.102 299.973 219.918 299.79L218.999 300.525C216.792 300.709 214.586 301.261 212.379 301.261C210.724 301.261 209.253 300.893 207.966 299.973C207.415 299.422 207.598 298.319 206.863 297.767C205.024 297.031 203.185 296.48 201.163 295.928C199.876 296.664 199.876 297.583 198.405 297.583C197.669 298.686 197.117 300.157 195.462 300.157C195.095 300.709 195.279 301.077 192.888 300.709C192.52 300.709 189.762 298.502 189.027 297.767C189.211 297.583 189.578 297.399 189.762 297.215C190.314 297.215 190.498 296.112 191.049 296.112C191.417 296.112 191.601 296.112 191.785 295.928C191.601 294.825 192.52 293.722 191.969 292.618C192.337 291.883 192.888 291.883 193.44 291.515C194.359 290.044 195.83 289.308 197.117 288.573C195.462 288.757 193.991 289.125 192.52 289.492C191.233 290.228 190.498 291.515 189.762 292.618C189.211 294.089 187.556 294.641 186.636 295.744C185.533 295.193 185.349 294.457 185.533 294.273V294.273ZM98.0071 313.397C96.9038 314.132 95.6166 315.787 94.3295 315.787C93.7779 315.787 93.4101 315.603 92.8585 314.868L91.3874 313.397V308.8H92.4907H93.2262C95.065 308.8 97.2715 308.616 98.5587 307.512C100.581 305.674 101.317 301.996 104.443 301.996H104.811C107.201 299.606 108.672 296.112 112.166 295.376C116.211 293.722 117.682 288.941 121.727 286.918C125.221 286.918 128.163 285.447 131.105 283.976C132.392 284.16 133.128 286.366 134.967 286.366C135.15 286.366 135.334 286.366 135.702 286.183C137.725 282.321 142.138 283.057 143.609 279.011C146.735 276.621 150.412 274.966 153.722 273.127C155.193 273.679 156.113 275.334 156.48 276.805C156.664 277.908 155.561 278.092 155.193 279.011C153.17 280.85 156.296 282.321 155.009 284.344C155.009 287.102 158.503 287.837 158.135 290.78C159.055 292.434 157.216 294.089 156.848 295.744C154.274 297.951 155.193 301.812 151.699 303.467C151.332 303.283 150.964 303.283 150.78 303.283C149.677 303.283 148.757 303.835 147.838 304.57C146.919 305.122 145.999 305.674 144.896 305.674C143.425 306.777 141.954 308.983 140.115 308.983C139.564 308.983 139.012 308.8 138.46 308.432C133.679 310.454 134.967 317.442 129.082 317.442C127.611 317.626 126.324 317.626 125.037 317.626C123.566 317.626 121.911 317.442 120.624 316.89L116.027 312.477C115.659 312.661 115.292 312.661 114.924 312.661C114.188 312.661 113.453 312.293 112.533 311.926C111.798 311.558 110.879 311.19 110.143 311.19C109.408 311.19 108.856 311.374 108.12 312.109C108.12 312.109 107.936 312.109 107.569 312.109H107.201H106.649C105.73 312.477 106.098 313.58 105.178 314.132C104.627 314.316 104.075 314.5 103.707 314.5C102.788 314.5 102.052 314.132 101.317 313.948" fill="#303030"/>
<path d="M331.532 309.168C332.82 308.433 333.371 306.778 334.658 306.042C335.578 305.491 336.681 305.123 337.6 304.755C337.784 304.387 338.336 304.203 338.704 304.203C339.439 303.1 340.726 303.284 341.278 302.181C341.646 301.445 342.381 301.078 343.117 300.526C343.485 300.526 343.668 300.894 343.668 301.078C344.036 301.813 344.22 302.549 344.956 303.1C345.323 303.468 344.772 304.02 345.139 304.387C345.139 304.939 344.772 305.307 344.772 305.858C344.956 306.41 344.404 307.329 345.323 307.513C345.507 307.513 345.691 307.513 345.691 307.697C345.507 308.249 346.059 308.617 346.059 308.984C346.243 309.168 346.61 309.168 346.794 309.352C346.794 309.72 346.61 310.088 346.978 310.088C347.714 310.271 347.53 311.375 347.714 311.926C347.53 312.294 347.53 312.846 347.53 313.397C347.714 313.949 348.449 314.501 348.081 315.236C347.898 315.42 347.714 315.788 347.714 315.972C347.162 316.156 346.427 316.707 345.875 316.707C345.691 316.707 345.507 316.707 345.323 316.523C345.139 316.156 344.588 315.972 344.22 315.972C344.036 315.972 343.852 315.972 343.852 315.972C343.668 316.339 343.301 316.339 342.933 316.339C342.565 316.339 342.197 316.339 342.013 316.891C341.646 316.891 341.462 316.339 341.094 316.339C340.91 316.523 340.91 316.523 340.726 316.523C340.542 316.523 340.359 316.339 340.175 316.339C339.991 316.156 339.807 316.156 339.623 316.156C339.439 316.156 339.439 316.156 339.255 316.339C339.071 316.523 338.888 316.707 338.704 316.707C338.52 316.707 338.336 316.707 338.152 316.523V315.788C338.52 314.684 339.807 314.501 339.991 313.397C340.359 313.397 340.542 313.213 340.542 312.846C340.175 312.11 339.991 312.846 338.888 313.03C338.52 313.949 337.417 311.375 336.681 311.742C336.497 312.11 336.681 312.662 336.313 313.03H336.129C335.762 313.03 335.578 313.03 335.21 313.213C335.026 313.213 334.658 313.397 334.474 313.397C334.291 313.397 334.107 313.397 333.923 313.213C332.82 311.742 329.326 312.294 328.406 310.455C329.51 309.72 331.165 310.271 331.532 309.168V309.168Z" fill="white"/>
<circle cx="248.894" cy="123.401" r="58.7578" stroke="black" stroke-width="3.79437"/>
<line x1="248.958" y1="184.06" x2="248.958" y2="62.7463" stroke="black" stroke-width="1.23637"/>
<path d="M192.98 146.374L305.006 100.003" stroke="black" stroke-width="1.23637"/>
<line x1="188.239" y1="123.465" x2="309.549" y2="123.465" stroke="black" stroke-width="1.23637"/>
<path d="M205.959 80.4658L291.83 166.337" stroke="black" stroke-width="1.23637"/>
<path d="M291.83 80.4658L205.959 166.337" stroke="black" stroke-width="1.23637"/>
<path d="M225.658 179.499L272.131 67.3031" stroke="black" stroke-width="1.23637"/>
<path d="M272.131 179.499L225.658 67.3031" stroke="black" stroke-width="1.23637"/>
<path d="M305.006 146.8L192.783 100.457" stroke="black" stroke-width="1.23637"/>
<path d="M98.593 215.755H103.268L106.789 230.295L110.401 215.877L116.077 215.452L119.902 230.72L123.454 215.755H127.794L122.331 235.972H117.018L113.103 219.975L109.035 235.972H103.784L98.593 215.755ZM130.844 215.755H143.138V219.58H135.185V223.617H141.772V227.321H135.185V232.147H143.138V235.972H130.844V215.755ZM146.94 215.755H151.342V232.147H158.627V235.972H146.94V215.755ZM170.343 236.366C167.105 236.366 164.575 235.496 162.754 233.756C160.933 232.015 160.022 229.557 160.022 226.38C160.022 224.214 160.447 222.302 161.297 220.642C162.167 218.983 163.392 217.708 164.97 216.818C166.548 215.907 168.37 215.452 170.434 215.452C172.114 215.452 173.732 215.755 175.291 216.362L174.471 220.278C173.095 219.651 171.759 219.337 170.464 219.337C168.623 219.337 167.166 219.944 166.093 221.158C165.021 222.352 164.484 223.951 164.484 225.955C164.484 227.998 165.051 229.587 166.184 230.72C167.317 231.854 168.886 232.42 170.889 232.42C172.205 232.42 173.479 232.208 174.714 231.783L175.382 235.516C173.904 236.083 172.225 236.366 170.343 236.366ZM187.707 236.366C185.724 236.366 183.973 235.931 182.455 235.061C180.938 234.191 179.754 232.967 178.904 231.388C178.074 229.81 177.659 227.998 177.659 225.955C177.659 223.89 178.074 222.069 178.904 220.491C179.734 218.912 180.907 217.688 182.425 216.818C183.943 215.948 185.703 215.512 187.707 215.512C189.69 215.512 191.44 215.948 192.958 216.818C194.476 217.668 195.65 218.872 196.479 220.43C197.309 221.988 197.724 223.789 197.724 225.833C197.724 227.918 197.309 229.759 196.479 231.358C195.65 232.936 194.476 234.171 192.958 235.061C191.44 235.931 189.69 236.366 187.707 236.366ZM187.707 232.511C189.366 232.511 190.692 231.914 191.683 230.72C192.695 229.526 193.201 227.938 193.201 225.955C193.201 224.659 192.968 223.516 192.503 222.524C192.058 221.513 191.41 220.744 190.56 220.217C189.73 219.671 188.779 219.398 187.707 219.398C186.634 219.398 185.673 219.671 184.823 220.217C183.993 220.744 183.346 221.513 182.88 222.524C182.435 223.516 182.213 224.659 182.213 225.955C182.213 227.25 182.435 228.393 182.88 229.385C183.346 230.376 183.993 231.145 184.823 231.692C185.653 232.238 186.614 232.511 187.707 232.511ZM205.501 221.705L204.226 235.972H200.31L202.223 215.755H207.687L212.847 230.265L217.856 215.755H223.32L225.171 235.972H221.225L219.829 221.766L214.486 236.184L210.874 236.518L205.501 221.705ZM228.727 215.755H241.02V219.58H233.067V223.617H239.655V227.321H233.067V232.147H241.02V235.972H228.727V215.755ZM252.928 219.58H247.403V215.755H262.824V219.58H257.36V235.972H252.928V219.58ZM274.236 236.366C272.253 236.366 270.502 235.931 268.985 235.061C267.467 234.191 266.283 232.967 265.433 231.388C264.603 229.81 264.189 227.998 264.189 225.955C264.189 223.89 264.603 222.069 265.433 220.491C266.263 218.912 267.437 217.688 268.954 216.818C270.472 215.948 272.233 215.512 274.236 215.512C276.219 215.512 277.97 215.948 279.488 216.818C281.005 217.668 282.179 218.872 283.009 220.43C283.838 221.988 284.253 223.789 284.253 225.833C284.253 227.918 283.838 229.759 283.009 231.358C282.179 232.936 281.005 234.171 279.488 235.061C277.97 235.931 276.219 236.366 274.236 236.366ZM274.236 232.511C275.896 232.511 277.221 231.914 278.213 230.72C279.224 229.526 279.73 227.938 279.73 225.955C279.73 224.659 279.498 223.516 279.032 222.524C278.587 221.513 277.939 220.744 277.089 220.217C276.26 219.671 275.309 219.398 274.236 219.398C273.164 219.398 272.202 219.671 271.352 220.217C270.523 220.744 269.875 221.513 269.41 222.524C268.964 223.516 268.742 224.659 268.742 225.955C268.742 227.25 268.964 228.393 269.41 229.385C269.875 230.376 270.523 231.145 271.352 231.692C272.182 232.238 273.143 232.511 274.236 232.511ZM299.018 236.366C297.844 236.366 296.721 236.235 295.649 235.972C294.596 235.709 293.686 235.354 292.917 234.909L293.281 230.842C294.192 231.408 295.143 231.854 296.134 232.177C297.146 232.481 298.077 232.633 298.927 232.633C299.898 232.633 300.688 232.43 301.295 232.026C301.902 231.621 302.205 231.085 302.205 230.417C302.205 229.87 302.003 229.455 301.598 229.172C301.194 228.869 300.556 228.545 299.686 228.201L298.957 227.897C298.856 227.857 298.745 227.816 298.623 227.776C298.502 227.715 298.36 227.654 298.198 227.594C297.065 227.128 296.155 226.693 295.467 226.288C294.779 225.863 294.182 225.277 293.676 224.528C293.19 223.779 292.947 222.808 292.947 221.614C292.947 219.671 293.605 218.143 294.92 217.03C296.236 215.917 298.067 215.361 300.414 215.361C302.195 215.361 304.017 215.725 305.878 216.453L305.21 220.46C304.462 220.035 303.652 219.701 302.782 219.459C301.932 219.216 301.123 219.094 300.354 219.094C299.403 219.094 298.664 219.287 298.138 219.671C297.612 220.035 297.349 220.531 297.349 221.158C297.349 221.705 297.531 222.13 297.895 222.433C298.259 222.737 298.846 223.061 299.656 223.405L300.9 223.89C302.074 224.336 303.045 224.771 303.814 225.196C304.583 225.621 305.241 226.238 305.787 227.047C306.334 227.837 306.607 228.869 306.607 230.144C306.607 232.106 305.939 233.634 304.603 234.727C303.268 235.82 301.406 236.366 299.018 236.366ZM310.098 215.755C310.685 215.735 311.798 215.725 313.437 215.725C315.097 215.725 316.22 215.735 316.807 215.755C318.891 215.796 320.53 216.352 321.724 217.425C322.918 218.497 323.515 219.985 323.515 221.887C323.515 223.243 323.211 224.447 322.604 225.499C321.997 226.531 321.137 227.331 320.024 227.897C318.931 228.464 317.687 228.747 316.291 228.747H314.317V235.972H310.098V215.755ZM316.108 225.165C317.1 225.165 317.869 224.882 318.415 224.315C318.982 223.749 319.265 222.98 319.265 222.008C319.265 220.228 318.284 219.337 316.321 219.337H314.317V225.165H316.108ZM336.28 236.366C334.297 236.366 332.546 235.931 331.029 235.061C329.511 234.191 328.327 232.967 327.477 231.388C326.647 229.81 326.232 227.998 326.232 225.955C326.232 223.89 326.647 222.069 327.477 220.491C328.307 218.912 329.48 217.688 330.998 216.818C332.516 215.948 334.277 215.512 336.28 215.512C338.263 215.512 340.014 215.948 341.531 216.818C343.049 217.668 344.223 218.872 345.053 220.43C345.882 221.988 346.297 223.789 346.297 225.833C346.297 227.918 345.882 229.759 345.053 231.358C344.223 232.936 343.049 234.171 341.531 235.061C340.014 235.931 338.263 236.366 336.28 236.366ZM336.28 232.511C337.939 232.511 339.265 231.914 340.256 230.72C341.268 229.526 341.774 227.938 341.774 225.955C341.774 224.659 341.541 223.516 341.076 222.524C340.631 221.513 339.983 220.744 339.133 220.217C338.304 219.671 337.352 219.398 336.28 219.398C335.207 219.398 334.246 219.671 333.396 220.217C332.567 220.744 331.919 221.513 331.454 222.524C331.008 223.516 330.786 224.659 330.786 225.955C330.786 227.25 331.008 228.393 331.454 229.385C331.919 230.376 332.567 231.145 333.396 231.692C334.226 232.238 335.187 232.511 336.28 232.511ZM349.643 215.755H354.044V223.587L360.631 215.755H365.882L357.565 225.347L365.457 235.972H360.115L354.044 227.806V235.972H349.643V215.755ZM368.318 215.755H380.612V219.58H372.659V223.617H379.246V227.321H372.659V232.147H380.612V235.972H368.318V215.755ZM389.757 236.366C388.583 236.366 387.46 236.235 386.387 235.972C385.335 235.709 384.424 235.354 383.655 234.909L384.02 230.842C384.93 231.408 385.881 231.854 386.873 232.177C387.885 232.481 388.816 232.633 389.666 232.633C390.637 232.633 391.426 232.43 392.033 232.026C392.641 231.621 392.944 231.085 392.944 230.417C392.944 229.87 392.742 229.455 392.337 229.172C391.932 228.869 391.295 228.545 390.425 228.201L389.696 227.897C389.595 227.857 389.484 227.816 389.362 227.776C389.241 227.715 389.099 227.654 388.937 227.594C387.804 227.128 386.893 226.693 386.205 226.288C385.517 225.863 384.92 225.277 384.414 224.528C383.929 223.779 383.686 222.808 383.686 221.614C383.686 219.671 384.344 218.143 385.659 217.03C386.974 215.917 388.806 215.361 391.153 215.361C392.934 215.361 394.755 215.725 396.617 216.453L395.949 220.46C395.2 220.035 394.391 219.701 393.521 219.459C392.671 219.216 391.861 219.094 391.092 219.094C390.141 219.094 389.403 219.287 388.877 219.671C388.35 220.035 388.087 220.531 388.087 221.158C388.087 221.705 388.269 222.13 388.634 222.433C388.998 222.737 389.585 223.061 390.394 223.405L391.639 223.89C392.813 224.336 393.784 224.771 394.553 225.196C395.322 225.621 395.98 226.238 396.526 227.047C397.072 227.837 397.346 228.869 397.346 230.144C397.346 232.106 396.678 233.634 395.342 234.727C394.006 235.82 392.145 236.366 389.757 236.366Z" fill="black"/>
<circle cx="51.2127" cy="102.851" r="29.4761" transform="rotate(-20 51.2127 102.851)" stroke="black" stroke-width="3.79437"/>
<rect x="40.3042" y="74.9185" width="1.39437" height="58.5634" transform="rotate(-20 40.3042 74.9185)" fill="black"/>
<rect x="25.4238" y="111.495" width="54.3803" height="1.39436" transform="rotate(-20 25.4238 111.495)" fill="black"/>
<line x1="26.0328" y1="91.4992" x2="77.384" y2="114.357" stroke="black" stroke-width="1.26479"/>
<line x1="63.3974" y1="75.884" x2="39.7065" y2="129.022" stroke="black" stroke-width="1.26479"/>
<ellipse cx="51.2127" cy="102.851" rx="3.48592" ry="3.48592" transform="rotate(-20 51.2127 102.851)" fill="black"/>
<ellipse cx="55.9599" cy="42.5103" rx="10.4577" ry="2.78873" transform="rotate(-20 55.9599 42.5103)" fill="black"/>
<path d="M55.3639 44.1883L56.7809 42.9517L67.102 54.7773L65.1366 55.4926L55.3639 44.1883Z" fill="black"/>
<path d="M91.8309 88.0664L93.7964 87.3511L96.1785 85.7421L98.0837 82.8229L101.42 83.8345L99.3361 88.3024L90.8795 93.6062L91.8309 88.0664Z" fill="#A01E1E"/>
<path d="M52.7614 103.029L62.1716 100.345L83.3744 93.3702L84.5667 96.6459L50.2009 106.186L49.4856 104.221L49.9023 103.327L52.7614 103.029Z" fill="#A01E1E"/>
<path d="M65.1368 55.4927L67.102 54.7774L72.1071 60.375L85.9902 76.0958L83.4259 77.4886L70.6186 62.4006L65.1368 55.4927Z" fill="#A01E1E"/>
<path d="M49.9023 103.327L82.6874 72.8464L84.1996 74.5134L52.7613 103.029L49.9023 103.327Z" fill="#A01E1E"/>
<path d="M72.584 61.685L77.9455 64.1852L79.2558 63.7082L83.9598 58.2865L92.4742 47.0263L106.526 28.5572L107.896 30.2842L78.4826 67.6993L72.584 61.685Z" fill="#A01E1E"/>
<path d="M82.2377 75.9778L85.9903 76.0958L89.2081 80.86L91.8311 88.0665L87.6618 88.8421L87.1247 85.328L86.3491 81.1587L82.2377 75.9778Z" fill="#A01E1E"/>
<path d="M105.991 33.2035L109.089 33.56L101.42 83.8346L98.0835 82.8231L105.991 33.2035Z" fill="#A01E1E"/>
<path d="M111.531 34.1552L114.807 32.9629L114.747 30.7591L117.011 32.9027L119.879 35.3527L117.247 38.0466L115.105 35.8219L111.531 34.1552Z" fill="#A01E1E"/>
<path d="M102.871 33.2776L108.468 26.1981L113.302 30.0195L115.462 32.7242L110.876 34.3934L109.566 34.8703L107.705 37.099L102.871 33.2776Z" fill="#A01E1E"/>
<path d="M106.109 29.4514L105.632 28.141L108.193 24.9834L114.746 30.7592L115.462 32.7246L111.531 34.1553L106.109 29.4514Z" fill="#A01E1E"/>
<path d="M93.1897 48.9923L95.4467 46.1106L95.2756 52.6846L92.595 51.4345L93.1897 48.9923Z" fill="#A01E1E"/>
<path d="M94.8589 53.5779L95.9909 54.6497L97.3614 56.3767L96.4678 55.96L94.0255 55.3651L94.8589 53.5779Z" fill="black"/>
<path d="M78.5629 66.8604L80.2664 64.4924L87.1201 69.0074L85.5713 68.8292L82.6521 66.924L81.3419 67.4009L83.3675 68.8894L83.7842 67.9958L83.5457 67.3407L85.3329 68.174L84.4995 69.9612L84.738 70.6164L78.5629 66.8604Z" fill="black"/>
<path d="M86.7732 71.6194C86.0201 72.9629 84.2746 74.2599 83.4637 73.8053C82.6528 73.3508 83.0837 71.3169 83.8368 69.9734C84.5899 68.6299 85.8578 67.9092 86.6686 68.3638C87.4795 68.8183 87.5263 70.2759 86.7732 71.6194Z" fill="black"/>
<path d="M87.7429 62.7909L90.1852 63.3858L86.6133 69.8794L84.7476 68.8311L87.7429 62.7909Z" fill="black"/>
<path d="M92.5948 51.4344L95.2756 52.6844L90.9305 63.1691L87.3602 61.4933L90.6896 54.3536L91.1063 53.46L91.523 52.5664L92.5948 51.4344Z" fill="black"/>
<path d="M87.3561 61.5024L90.9304 63.1692L89.6203 63.646L87.6547 64.3614L87.3561 61.5024Z" fill="black"/>
<path d="M95.9908 54.6497L97.3613 56.3766L94.861 61.7381L93.0738 60.9047L95.9908 54.6497Z" fill="black"/>
<path d="M94.9381 23.872L104.142 22.006L106.406 24.1496L102.236 24.9252L95.4326 26.6165L94.9381 23.872Z" fill="black"/>
<rect x="102.221" y="24.5496" width="3.11887" height="5.62987" transform="rotate(-47.7733 102.221 24.5496)" fill="black"/>
<circle cx="150.794" cy="66.6064" r="29.4761" transform="rotate(-20 150.794 66.6064)" stroke="black" stroke-width="3.79437"/>
<rect x="139.885" y="38.6741" width="1.39437" height="58.5634" transform="rotate(-20 139.885 38.6741)" fill="black"/>
<rect x="125.005" y="75.2507" width="54.3803" height="1.39436" transform="rotate(-20 125.005 75.2507)" fill="black"/>
<line x1="125.614" y1="55.2548" x2="176.965" y2="78.1124" stroke="black" stroke-width="1.26479"/>
<line x1="162.978" y1="39.6396" x2="139.287" y2="92.778" stroke="black" stroke-width="1.26479"/>
<ellipse cx="150.794" cy="66.6061" rx="3.48591" ry="3.48592" transform="rotate(-20 150.794 66.6061)" fill="black"/>
<path d="M117.131 37.3106L119.513 35.7016L152.212 65.6715L150.486 67.5758L117.131 37.3106Z" fill="black"/>
<path d="M131.909 51.9547C130.907 51.1176 130.819 49.609 131.716 48.661V48.661C132.577 47.7519 134.012 47.714 134.92 48.5764L151.949 64.7595C152.545 65.3258 152.58 66.2643 152.028 66.8734V66.8734C151.483 67.4754 150.559 67.5395 149.936 67.0185L131.909 51.9547Z" fill="#A01E1E"/>
<rect x="89.7478" y="92.5347" width="12.5493" height="1.39436" transform="rotate(-20 89.7478 92.5347)" fill="black"/>
<circle cx="89.331" cy="93.4282" r="6.27465" transform="rotate(-20 89.331 93.4282)" fill="black"/>
<path d="M418.119 94.7149C412.551 110.012 420.439 126.927 435.736 132.495C451.034 138.063 467.948 130.175 473.516 114.878C479.084 99.5803 471.196 82.6657 455.899 77.0979C440.602 71.5301 423.687 79.4175 418.119 94.7149Z" stroke="black" stroke-width="3.79437"/>
<rect width="1.39437" height="58.5634" transform="matrix(-0.939692 -0.34202 -0.34202 0.939692 456.726 76.864)" fill="black"/>
<rect width="54.3803" height="1.39436" transform="matrix(-0.939692 -0.34202 -0.34202 0.939692 471.606 113.441)" fill="black"/>
<line y1="-0.632394" x2="56.2087" y2="-0.632394" transform="matrix(-0.913581 0.406655 0.406655 0.913581 471.255 94.0227)" stroke="black" stroke-width="1.26479"/>
<line y1="-0.632394" x2="58.1804" y2="-0.632394" transform="matrix(0.407199 0.913339 0.91334 -0.407199 434.211 77.572)" stroke="black" stroke-width="1.26479"/>
<ellipse rx="3.48592" ry="3.48592" transform="matrix(-0.939692 -0.34202 -0.34202 0.939692 445.818 104.796)" fill="black"/>
<path d="M324.851 61.5103C319.283 76.8078 327.171 93.7224 342.468 99.2902C357.766 104.858 374.68 96.9706 380.248 81.6731C385.816 66.3757 377.928 49.4611 362.631 43.8933C347.334 38.3255 330.419 46.2129 324.851 61.5103Z" stroke="black" stroke-width="3.79437"/>
<rect width="1.39436" height="58.5634" transform="matrix(-0.939692 -0.34202 -0.34202 0.939692 363.458 43.6594)" fill="black"/>
<rect width="54.3803" height="1.39436" transform="matrix(-0.939692 -0.34202 -0.34202 0.939692 378.338 80.2361)" fill="black"/>
<line y1="-0.632394" x2="56.2087" y2="-0.632394" transform="matrix(-0.913581 0.406655 0.406655 0.913581 377.987 60.8179)" stroke="black" stroke-width="1.26479"/>
<line y1="-0.632394" x2="58.1803" y2="-0.632394" transform="matrix(0.407199 0.913339 0.913339 -0.407199 340.943 44.3674)" stroke="black" stroke-width="1.26479"/>
<ellipse rx="3.48592" ry="3.48592" transform="matrix(-0.939692 -0.34202 -0.34202 0.939692 352.55 71.5915)" fill="black"/>
<rect width="47.4085" height="2.78873" transform="matrix(-0.939692 -0.34202 -0.34202 0.939692 425.879 51.5398)" fill="#7395B5"/>
<path d="M426.487 50.2534L424.027 51.2294L444.329 102.771L446.949 103.725L426.487 50.2534Z" fill="#7395B5"/>
<path d="M446.016 105.958L446.949 103.725L405.884 86.5522L404.959 88.7611L446.016 105.958Z" fill="#7395B5"/>
<ellipse rx="3.48592" ry="3.48592" transform="matrix(-0.939692 -0.34202 -0.34202 0.939692 405.081 86.2599)" fill="#7395B5"/>
<rect width="2.78873" height="45.1989" transform="matrix(-0.851356 -0.524588 -0.524588 0.851356 430.587 47.124)" fill="#7395B5"/>
<rect width="2.78873" height="50.1972" transform="matrix(-0.831821 0.555044 0.555044 0.831821 377.134 42.7012)" fill="#7395B5"/>
<rect width="2.78873" height="56.7054" transform="matrix(-0.788768 -0.614691 -0.614691 0.788768 388.305 28.3909)" fill="#7395B5"/>
<ellipse rx="9.76056" ry="2.09155" transform="matrix(-0.939692 -0.34202 -0.34202 0.939692 429.812 44.8105)" fill="black"/>
<path d="M368.945 20.4304L367.635 19.9535L366.204 23.8843L367.753 23.7061L368.945 20.4304Z" fill="black"/>
<path d="M389.493 27.1672L367.635 19.9535L367.158 21.2638L387.99 28.8461L389.493 27.1672Z" fill="black"/>
<path d="M367.753 23.7061L366.204 23.8844L372.391 30.7762L373.45 29.8698L367.753 23.7061Z" fill="black"/>
</svg>
